<svg width="535" height="535" viewBox="0 0 535 535" fill="none" xmlns="http://www.w3.org/2000/svg">
<path d="M517.424 127.94L409.254 68.9648C406.803 67.6087 404.051 66.8901 401.25 66.875H334.375C329.941 66.875 325.688 68.6364 322.553 71.7718C319.418 74.9072 317.656 79.1597 317.656 83.5938C317.656 96.896 312.372 109.653 302.966 119.06C293.56 128.466 280.802 133.75 267.5 133.75C254.198 133.75 241.44 128.466 232.034 119.06C222.628 109.653 217.344 96.896 217.344 83.5938C217.344 79.1597 215.582 74.9072 212.447 71.7718C209.312 68.6364 205.059 66.875 200.625 66.875H133.75C130.942 66.8866 128.182 67.6053 125.725 68.9648L17.5756 127.94C9.86615 132.014 4.08699 138.98 1.50529 147.308C-1.0764 155.637 -0.249931 164.65 3.80349 172.37L44.0748 249.297C47.003 254.828 51.3921 259.45 56.7645 262.659C62.1369 265.869 68.2868 267.543 74.5447 267.5H117.031V434.688C117.031 443.556 120.554 452.061 126.825 458.331C133.096 464.602 141.601 468.125 150.469 468.125H384.531C393.399 468.125 401.904 464.602 408.175 458.331C414.446 452.061 417.969 443.556 417.969 434.688V267.5H460.476C466.734 267.543 472.884 265.869 478.256 262.659C483.629 259.45 488.018 254.828 490.946 249.297L531.217 172.37C535.269 164.647 536.093 155.633 533.507 147.304C530.921 138.974 525.137 132.011 517.424 127.94ZM74.5447 234.062C74.2358 234.077 73.9319 233.981 73.6879 233.791L33.6256 157.282L117.031 111.765V234.062H74.5447ZM384.531 434.688H150.469V100.312H185.578C189.435 119.187 199.693 136.15 214.617 148.332C229.541 160.515 248.214 167.169 267.479 167.169C286.744 167.169 305.417 160.515 320.341 148.332C335.265 136.15 345.523 119.187 349.38 100.312H384.531V434.688ZM461.333 233.77C461.217 233.874 461.082 233.954 460.935 234.004C460.787 234.054 460.631 234.074 460.476 234.062H417.969V111.765L501.395 157.282L461.333 233.77Z" fill="black"/>
</svg>
