<svg width="100" height="100" viewBox="0 0 100 100" fill="none" xmlns="http://www.w3.org/2000/svg">
<path d="M96.7156 23.9141L76.4968 12.8906C76.0387 12.6371 75.5243 12.5028 75.0008 12.5H62.5008C61.672 12.5 60.8771 12.8292 60.291 13.4153C59.705 14.0013 59.3758 14.7962 59.3758 15.625C59.3758 18.1114 58.388 20.496 56.6299 22.2541C54.8717 24.0123 52.4872 25 50.0008 25C47.5144 25 45.1298 24.0123 43.3716 22.2541C41.6135 20.496 40.6258 18.1114 40.6258 15.625C40.6258 14.7962 40.2965 14.0013 39.7105 13.4153C39.1244 12.8292 38.3296 12.5 37.5008 12.5H25.0008C24.4759 12.5022 23.96 12.6365 23.5008 12.8906L3.28592 23.9141C1.8449 24.6756 0.764688 25.9775 0.282128 27.5343C-0.200432 29.0911 -0.0459517 30.7757 0.711697 32.2188L8.23904 46.5977C8.78636 47.6314 9.60677 48.4953 10.611 49.0952C11.6151 49.6951 12.7646 50.008 13.9344 50H21.8758V81.25C21.8758 82.9076 22.5342 84.4973 23.7063 85.6694C24.8784 86.8415 26.4682 87.5 28.1258 87.5H71.8758C73.5334 87.5 75.1231 86.8415 76.2952 85.6694C77.4673 84.4973 78.1258 82.9076 78.1258 81.25V50H86.0711C87.2408 50.008 88.3903 49.6951 89.3945 49.0952C90.3987 48.4953 91.2191 47.6314 91.7664 46.5977L99.2937 32.2188C100.051 30.7752 100.205 29.0902 99.7217 27.5334C99.2384 25.9765 98.1573 24.6749 96.7156 23.9141ZM13.9344 43.75C13.8766 43.7527 13.8198 43.7347 13.7742 43.6992L6.28592 29.3984L21.8758 20.8906V43.75H13.9344ZM71.8758 81.25H28.1258V18.75H34.6883C35.4092 22.278 37.3266 25.4486 40.1161 27.7257C42.9056 30.0028 46.396 31.2465 49.9969 31.2465C53.5977 31.2465 57.0881 30.0028 59.8776 27.7257C62.6671 25.4486 64.5845 22.278 65.3054 18.75H71.8758V81.25ZM86.2312 43.6953C86.2096 43.7148 86.1843 43.7297 86.1568 43.7391C86.1292 43.7485 86.1001 43.7522 86.0711 43.75H78.1258V20.8906L93.7195 29.3984L86.2312 43.6953Z" fill="#101010"/>
</svg>
